<?xml version="1.0" encoding="utf-8"?>
<!-- Generator: Adobe Illustrator 19.0.0, SVG Export Plug-In . SVG Version: 6.00 Build 0)  -->
<svg version="1.1" id="Layer_1" xmlns="http://www.w3.org/2000/svg" xmlns:xlink="http://www.w3.org/1999/xlink" x="0px" y="0px"
	 viewBox="0 0 1000 1000" style="enable-background:new 0 0 1000 1000;" xml:space="preserve">
<style type="text/css">
	.st0{fill:url(#XMLID_112_);stroke:#FFFFFF;stroke-miterlimit:10;}
	.st1{fill:url(#XMLID_113_);stroke:#FFFFFF;stroke-miterlimit:10;}
</style>
<g id="XMLID_111_">
	<linearGradient id="XMLID_112_" gradientUnits="userSpaceOnUse" x1="62.9537" y1="185.3173" x2="764.9008" y2="887.2643">
		<stop  offset="0" style="stop-color:#EF4123"/>
		<stop  offset="1" style="stop-color:#F086B6"/>
	</linearGradient>
	<path id="XMLID_109_" class="st0" d="M985.7,537.4l-0.3,0l-0.4,0l-61.5-5.6l-30.6,59.2c-2.6,5.1-8.9,7.1-14,4.4
		c-2.8-1.4-4.6-4-5.3-6.8l-0.1-0.6l-15.6-66l-14.2,22.4c-2.5,4-6.7,6.3-11.1,6.5l-0.9,0l-104.2,4.5l-0.2,0c-2.1,0.1-4.2-0.3-6-1
		c-7.1-2.9-9.2-5.9-11.6-8.3c-2-2.3-3.4-4.4-4.6-6.4c-2.3-3.9-4.1-7.4-5.7-10.9c-3.1-6.9-5.6-13.5-8-20.1
		c-4.6-13.2-8.6-26.3-12.3-39.3c-7.3-26.1-13.8-52.2-19.8-78.4c-2.6-11.3-4.9-22.7-7.4-34l-16.4,117.3l-18,120.6l-9.4,60.4
		c-3,20-6.7,40.6-10.2,61.1c-2.4,14.2-15.9,23.7-30.1,21.3c-9.7-1.7-17.2-8.5-20.2-17.2l-0.2-0.5l-14.1-41.1
		c-4.7-13.7-9.6-27.4-13.8-41.1l-26.4-82.2l-15-49.8l-22.2,120.3l-23.3,119.3l-12.3,59.7c-3.9,19.8-9,40.1-13.5,60.1l-0.1,0.4
		c-3.4,15.1-18.4,24.6-33.5,21.2c-11.6-2.6-19.9-12.1-21.6-23.2c-2.3-15.6-5.4-31.5-7.1-47c-1.8-15.5-3.9-31.1-5.2-46.6
		c-3.1-31-5.3-61.8-7.3-92.6c-3.9-61.6-6.1-123-8.6-184.2l-3.8-91.8c-1.3-30.6-2.8-61.1-4.6-91.5l-0.2-3.4
		c-5.4,28.5-11.1,56.8-17.4,85.1c-4.9,21.7-10,43.4-15.6,65.1c-2.9,10.8-5.8,21.7-9.1,32.6c-3.5,11-6.5,21.5-12.4,33.8
		c-0.9,1.7-1.7,3.3-3.1,5.3c-0.5,0.8-1.8,2.4-2.8,3.5c-1.7,2.4-8.1,5.7-7.1,5l-0.2,0.1c0.6-0.2-5.4,1.7-3,0.9l-0.1,0l-0.5,0.1
		l-1.1,0.2l-2.2,0.4l-4.3,0.7c-5.8,0.9-11.6,1.7-17.5,2.2c-11.8,1-23.9,1.2-36.1-0.2c-6.1-0.7-12.2-1.9-17.9-3.3l-11.1-2.7
		c0.5-0.2-1.2,0.3-2.8,1.3c-1.7,1-3.5,2.3-5.4,3.8c-3.6,2.9-7.5,6.6-10.8,10l-0.6,0.6c-4.6,4.9-12.3,5.1-17.2,0.5
		c-1.6-1.5-2.6-3.3-3.3-5.2l-13.6-42.9l-15.3,53.6l-0.1,0.4c-1.1,3.9-5.2,6.2-9.1,5c-2.1-0.6-3.7-2-4.6-3.8
		c-3.6-7.4-7.4-14.8-11.4-22.1l-6-10.7c-1.9-3.1-3.8-6.4-5.8-8.9c-1.7,0.9-3.4,1.6-5,2.1c-4.5,1.4-8.8,2.2-13,2.9
		c-8.6,1.3-17,1.9-25.5,2.2c-0.9,0-1.8,0-2.7,0c13,264.2,231.3,474.4,498.7,474.4c263.1,0,478.5-203.5,497.8-461.6
		C993.7,537.1,989.7,537.3,985.7,537.4z"/>
	<linearGradient id="XMLID_113_" gradientUnits="userSpaceOnUse" x1="172.0285" y1="76.2425" x2="873.9755" y2="778.1895">
		<stop  offset="0" style="stop-color:#EF4123"/>
		<stop  offset="1" style="stop-color:#F086B6"/>
	</linearGradient>
	<path id="XMLID_107_" class="st1" d="M3.4,516.1c8.2-1,16.4-2.2,24.3-3.9c3.9-0.9,7.8-1.9,11.3-3.2c1.7-0.7,3.3-1.5,4.3-2.2
		l0.5-0.5l0.1-0.1l1.7-1.2l0.1,0c0.3-0.1-0.3,0,0.8-0.3c1.2-0.4,2.7-0.4,3.9,0c1.2,0.4,0.9,0.4,1.4,0.6c2.4,1.5,3,2.3,4,3.3
		c3.3,3.7,5.6,7.2,8.1,10.7l7,10.7c1.1,1.8,2.2,3.6,3.3,5.4l15.4-69.8c1.2-5.4,6.6-8.9,12-7.7c3.4,0.8,6.1,3.2,7.2,6.2l0.2,0.6
		l20.8,55.1c2-1.8,4.1-3.5,6.5-5.2c3.1-2,6.3-4.2,12.3-5.5l1.1-0.2l0.6-0.1l1.3-0.1l1-0.1c0.4-0.1,1.7,0,3.2,0.1
		c3.2,0.2,4.2,0.5,6,0.8l8.3,1.6c5.1,0.9,9.9,1.6,14.9,1.9c9.9,0.6,20,0.1,30.1-1.3c5.1-0.6,10.2-1.6,15.3-2.6l1.9-0.4
		c3.3-7.7,6.4-18.4,9-28.4c2.7-10.4,5.2-21,7.5-31.6c4.7-21.3,8.9-42.9,12.9-64.4c7.9-43.2,14.8-86.7,21.2-130.1
		c3.1-21.7,6-43.5,8.4-65.1c2.3-21.5,4.5-43.6,4.8-63.8l0-0.4c0.1-12.3,10.2-22.1,22.5-21.9c10.6,0.1,19.4,7.7,21.5,17.7
		c3.2,15.7,7,31.5,9.1,47c2.6,15.6,4.6,31,6.4,46.5c2.1,15.5,3.4,30.9,5,46.3c1.7,15.4,2.6,30.8,3.9,46.2
		c2.4,30.8,4.4,61.5,6.2,92.1l5.4,91.9c3.4,61.2,7.1,122.3,11.5,183c0.1,0.8,0.1,1.7,0.2,2.5l11.6-61l45.3-238.5
		c2.9-15.3,17.7-25.3,32.9-22.4c10.9,2.1,19.2,10.2,21.9,20.3l0.2,0.7l11.1,40.9c3.8,13.7,7.2,27.3,11.3,41l24.2,82.1l18.8,62
		l2.5-14.4l19.7-120.1l39.6-240.4l0.1-0.4c1.9-11.7,13-19.7,24.8-17.8c9.3,1.5,16.3,8.9,17.7,17.7c8.7,52.2,18.3,104.6,29.1,156.5
		c5.5,25.9,10.9,51.8,17.4,77.2c3.2,12.7,6.6,25.3,10.5,37.4c1.9,6,4,11.9,6.2,17.3c0.9,2.1,1.8,4,2.7,5.7l88.7,1.3l28.7-40.2
		l0.4-0.6c4.2-5.9,12.4-7.3,18.3-3.1c2.9,2.1,4.7,5.1,5.3,8.4l12.6,70.6l22.3-37.5l0.3-0.5c1.7-2.9,5-4.3,8.1-3.8l66.7,10.7
		c4.1,0.2,8.1,0.4,12.2,0.5c0.5-8.7,0.7-17.5,0.7-26.4C999.3,223.6,775.8,0,500,0C224.2,0,0.7,223.6,0.7,499.3
		c0,5.7,0.2,11.4,0.4,17C1.9,516.3,2.6,516.2,3.4,516.1z"/>
</g>
</svg>
