<?xml version="1.0" encoding="utf-8"?>
<!-- Generator: Adobe Illustrator 19.0.0, SVG Export Plug-In . SVG Version: 6.00 Build 0)  -->
<svg version="1.1" id="Layer_1" xmlns="http://www.w3.org/2000/svg" xmlns:xlink="http://www.w3.org/1999/xlink" x="0px" y="0px"
	 viewBox="0 0 1000 1000" style="enable-background:new 0 0 1000 1000;" xml:space="preserve">
<style type="text/css">
	.st0{fill:url(#XMLID_269_);stroke:#FFFFFF;stroke-miterlimit:10;}
	.st1{fill:url(#XMLID_270_);stroke:#FFFFFF;stroke-miterlimit:10;}
	.st2{fill:url(#XMLID_271_);stroke:#FFFFFF;stroke-miterlimit:10;}
	.st3{fill:url(#XMLID_272_);stroke:#FFFFFF;stroke-miterlimit:10;}
	.st4{fill:url(#XMLID_273_);stroke:#FFFFFF;stroke-miterlimit:10;}
	.st5{fill:url(#XMLID_274_);stroke:#FFFFFF;stroke-miterlimit:10;}
</style>
<g id="XMLID_107_">
	<linearGradient id="XMLID_269_" gradientUnits="userSpaceOnUse" x1="-362.4517" y1="502.2347" x2="985.291" y2="502.2347">
		<stop  offset="0" style="stop-color:#EF4123"/>
		<stop  offset="1" style="stop-color:#F086B6"/>
	</linearGradient>
	<path id="XMLID_114_" class="st0" d="M730.5,481.4l-0.4,0c-0.9-0.1-1.8-0.1-2.7-0.1c-0.4,0.1-0.9,0.3-1.5,0.6
		c-1.7,0.9-3.6,2.4-5.3,4.2c-3.4,3.6-5.9,8.4-7.2,13.5c-0.7,2.6-1,5.2-1.2,7.9c0,0.7-0.1,1.4,0,2l0,1l0,0l0.1,0.6
		c0.2,1,0.1,0.1,0.2,0.8c0.1,0.4,0.3,0.9,0.5,1.5c0.8,2.1,2.2,4.5,3.7,6.5c1.4,2,3.4,3.7,4,3.9l2,0.3c1.3,0.2,2.6,0.3,3.9,0.4
		c2.6,0.1,4.9-0.1,6.8-0.7c3.6-1,6.1-3.4,8.7-8.1c0.8-1.6,0.9-1.8,1.4-3.2c0.5-1.2,0.8-2.4,1.1-3.6c0.6-2.5,0.8-5,0.7-7.3
		c-0.1-2.3-0.6-4.4-1.3-5.8c-0.6-1.3-1.4-2-2.4-2.6c-0.6-0.4-1.3-0.7-1.9-1.1c-4.2-2.6-5.5-8.1-3-12.3
		C735.1,481.1,732.8,481.7,730.5,481.4z"/>
	<linearGradient id="XMLID_270_" gradientUnits="userSpaceOnUse" x1="-362.4517" y1="283.4217" x2="985.291" y2="283.4217">
		<stop  offset="0" style="stop-color:#EF4123"/>
		<stop  offset="1" style="stop-color:#F086B6"/>
	</linearGradient>
	<path id="XMLID_113_" class="st1" d="M7.8,508.1c4.8-0.5,9.6-1.2,14.3-2.2c2.3-0.5,4.6-1.1,6.7-1.9c1-0.4,2-0.9,2.7-1.4l0.4-0.4
		l0.1,0l0.7-0.5l0.1,0c0.2-0.1-0.1,0,0.4-0.2c0.5-0.2,1.2-0.2,1.7,0c0.5,0.2,0.4,0.2,0.7,0.3c1.2,0.7,1.5,1.2,2,1.7
		c3.5,4.1,6,8.2,8.6,12.4c1.2,1.9,2.2,3.8,3.3,5.7l9.9-43.4c0.5-2.4,2.9-3.8,5.2-3.3c1.5,0.3,2.6,1.4,3.1,2.7l0.1,0.2l12.9,34.7
		c1.5-1.4,3-2.7,4.8-4.1c1.1-0.8,2.4-1.6,3.9-2.3c0.9-0.3,1.6-0.7,2.7-0.9c0.7-0.1,0.8-0.2,1.9-0.3l0.9-0.1c2-0.2,5.5-0.1,7.6,0
		c4.8,0.2,9.4,0.6,13.7,0.6l3.1,0c1,0,1.6-0.1,2.6-0.2l6.8-1.2l13.5-2.4c4.3-0.9,8.5-1.8,10.5-3.3c2.1-1.3,4.2-4.2,6.5-7.9l0.9-1.4
		l0.3-0.6l0,0l0.1-0.1l0.2-0.4c0.6-1,1.1-2.1,1.4-2.8c0.6-1.4,1.5-3.7,2.2-5.6c5.9-16.7,10.3-34.5,13.7-52.1
		c3.4-17.7,6-35.5,6.6-53.1l0-0.4c0.2-5.4,4.7-9.6,10-9.4c4.6,0.1,8.3,3.4,9.2,7.7l6,28.8c1.7,9.6,3.3,19.3,4.9,29
		c1.2,9.7,2.6,19.4,3.7,29l3.1,28.9c1,9.6,2,19.2,3.1,28.7c1.1,9.5,2.1,19.1,3.6,28.5c1.1,7.2,2,14.4,3.1,21.5c1.1-3.6,2.2-7.2,3-11
		c1.2-5.1,2.4-10.2,3.5-15.4c2.2-10.4,4.3-21.1,6.8-31.7c2.3-10.6,5.1-21.1,7.7-31.7l0-0.1c1.3-5.2,6.4-8.3,11.6-7.1
		c3.3,0.8,5.8,3.3,6.8,6.3l8.7,26.1l7.8,26.2l4.3,14.4c0.1-0.5,0.2-0.9,0.2-1.4l6.3-39.8l6-39.9l2.8-19.9l1.3-9.9l0.6-4.9l0.2-1.9
		c0-0.3,0-0.6-0.1-0.9l0-0.2c-0.1-1,0.1-2,0.4-2.9l0.3-0.8l0.1-0.4l0.1-0.2c-0.1,0.2,0-0.2,1-1.8c0.9-1.3,2.4-2.6,4.2-3.4
		c1.8-0.8,3.6-0.8,4.9-0.7c2.1,0.2,5.3,1.7,7,4.6c0.8,1.4,1.2,2.8,1.3,3.9l0,0.3l0,0.4c0,1.4,0,1.2,0,1.8l0,0.2
		c0.2,2.6,0.6,5.6,1.1,8.5c0.6,3.6,1.2,7.2,1.9,10.8c1.4,7.2,3.1,14.5,4.9,21.7c1.8,7.2,3.8,14.3,6.1,21.2
		c2.3,6.9,4.8,13.8,7.7,19.8c1.5,3,3.2,5.8,4.6,7.4c0.3,0.3,0.5,0.5,0.7,0.6c1.6,0.4,0.2,0,1.3,0.1c1.3-0.2,3.7-1,6.1-2.7
		c2.5-1.6,5.1-3.8,7.6-6.1c5.2-4.7,10.3-10.3,16.1-15.8c3-2.8,6.1-5.6,10.1-8.3c2-1.3,4.3-2.7,7.4-3.6c3-1,7-1.6,11.1-0.4
		c5.1,1.4,8.2,6.7,6.7,11.9c-0.7,2.6-2.5,4.7-4.7,5.9l-0.1,0c-9.4,5.1-18.4,11.6-23.3,19.1c-1.2,1.8-2,3.7-2.5,5.3
		c-0.3,0.8-0.4,1.6-0.4,2.3l0,0.5c0,0,0,0,0,0l0,0.5c0,0.8,0.1,1.5,0.1,1.7c0.2,1.5,0.8,3.8,1.6,5.5c0.8,1.8,1.8,3.4,2.9,4.5
		c1.1,1.1,2.1,1.7,2.9,1.9c0.4,0.1,0.7,0.1,1.2,0.1l0.1,0l0.9-0.2c1-0.2,0.7-0.3,0.7-0.3c0.5-0.2,2.4-1.4,3.8-2.8
		c0.8-0.7,1.6-1.6,2.4-2.6l1-1.3l1.3-1.8c2.5-3.6,3.8-6.7,4.4-11.9c0.7-5.3,1.6-12.5,3.7-18.8l0-0.1c1.7-5.1,7.1-7.8,12.2-6.1
		c4.7,1.5,7.4,6.3,6.5,11c-0.3,1.5-0.4,4-0.5,6.4c0,2.5,0,5,0.2,7.6c0.3,4.9,0.8,9.8,1.5,14.5c0.2-0.3,0.5-0.5,0.7-0.8l23-23.4
		c3.7-3.8,7.2-7.7,10.4-11.7c1.6-2,3.1-3.9,4.5-5.9c1.3-2,2.5-3.9,3.4-5.7l0.1-0.1c2.4-4.8,8.3-6.7,13-4.2c3.7,1.9,5.7,5.8,5.2,9.7
		c-1.6,13.5-1.6,28.1,0.1,41.6c0.9,6.7,2.3,13.5,4.6,18.2c1,2.3,2.4,3.5,2.5,3.5c0,0,0,0,0.1,0c0.2-0.1,0.4,0,0.7-0.2l0.3-0.1l0.1,0
		l0.2-0.1l0.3-0.2l-0.1,0c-0.5,0.3,0-0.1,0.4-0.4c0.4-0.4,0.8-0.8,1.3-1.4c0.9-1,1.8-2.3,2.7-3.6c1.8-2.6,3.5-5.5,5.1-8.5
		c3.2-6,5.9-12.4,8.1-18.8c2.3-6.7,4.1-13.7,5-20.5l-0.2-19.6l0-0.1c-0.1-5.3,4.2-9.7,9.5-9.8c4.7-0.1,8.7,3.3,9.6,7.8
		c1.5,7.9,1.3,15.3,0.4,22.5l0.3,25l-0.1,23c0,2.8,0,5.6,0,8.4c1-2.8,2-5.7,3-8.5c3.3-9.1,6.8-18.1,10.6-27.1
		c1.9-4.5,3.9-9,6.2-13.6c1.3-2.5,3-5.3,4.4-7.2c1.8-2.5,3.4-4.4,5.2-6.4c6.9-7.8,14.6-14.6,23.5-20.4c8.8-5.7,19.2-10.7,31.8-11
		c5.3-0.1,9.7,4.1,9.8,9.4c0,0.2-0.1,0.4-0.1,0.6c0.1,0,0.2-0.1,0.4-0.1c4.7-0.5,8.9,2.5,10.2,6.8c2.3,7.6,4.3,15.1,6.1,22.7
		c4.6-5.6,9.5-11.1,15-16.2c7.2-6.7,15.3-12.8,24.8-17.2c7.5-3.6,16.1-5.9,24.9-6c2.5-0.4,5.4-0.3,8.8,0.6c5.1,1.4,8.1,6.7,6.7,11.9
		c-0.3,1-0.7,1.8-1.3,2.6c2.5-1.7,5.7-2.2,8.6-1l0.6,0.2c2.3,0.9,4.5,2.4,6.4,4c2,1.2,4,2.4,6.2,3.4c3.9,2,8,3.6,12.1,5.1
		c8.4,2.9,17.3,4.9,26.5,6.3c4.6,0.7,9.2,1.4,14,2l7.2,1l0.6,0.1l0.2,0l0.4,0l1.8,0l3.6,0l24.9-0.3l17.4-24.6l0.2-0.2
		c1.8-2.6,5.4-3.2,7.9-1.4c1.3,0.9,2.1,2.2,2.3,3.6l8.4,45.6L904,495l0.1-0.1c0.7-1.2,2.1-1.8,3.4-1.6l39,5.9l48,1.7
		c0-0.3,0-0.5,0-0.8c0-276.1-223.9-500-500-500s-500,223.9-500,500c0,3.1,0.2,6.1,0.2,9.2C-0.9,508.9,3.5,508.6,7.8,508.1z"/>
	<linearGradient id="XMLID_271_" gradientUnits="userSpaceOnUse" x1="-362.4517" y1="504.9712" x2="985.291" y2="504.9712">
		<stop  offset="0" style="stop-color:#EF4123"/>
		<stop  offset="1" style="stop-color:#F086B6"/>
	</linearGradient>
	<path id="XMLID_112_" class="st2" d="M631.5,484.7c-2.4,1.7-4.7,3.4-6.8,5.3c-4.3,3.8-8,7.9-10.6,12.4c-1.3,2.2-2.3,4.5-3.1,6.7
		c-0.3,1.1-0.6,2.3-0.8,3.4c-0.2,1-0.3,2.8-0.2,2.4c0.1,1.3,0.8,3.6,1.9,5.6c1.1,2.1,2.5,4.2,4,5.7c0.6,0.7,1.4,1.3,1.9,1.7l0.1-0.1
		c0.5-0.2,1.5-0.7,2.2-1.3c3.3-2.3,6.5-6.8,8.9-11.6c2.4-4.9,4.3-10.4,5.5-16c1.2-5.5,1.7-11.3,1.2-16.3l0-0.1c0-0.2,0-0.4,0-0.5
		C634.3,482.9,632.8,483.8,631.5,484.7z"/>
	<linearGradient id="XMLID_272_" gradientUnits="userSpaceOnUse" x1="-362.4517" y1="646.1866" x2="985.291" y2="646.1866">
		<stop  offset="0" style="stop-color:#EF4123"/>
		<stop  offset="1" style="stop-color:#F086B6"/>
	</linearGradient>
	<path id="XMLID_111_" class="st3" d="M622.4,646.2c-0.1,0-0.1,0-0.2-0.1C621.4,646.1,621.9,646.2,622.4,646.2z"/>
	<linearGradient id="XMLID_273_" gradientUnits="userSpaceOnUse" x1="-362.4517" y1="599.2794" x2="985.291" y2="599.2794">
		<stop  offset="0" style="stop-color:#EF4123"/>
		<stop  offset="1" style="stop-color:#F086B6"/>
	</linearGradient>
	<path id="XMLID_110_" class="st4" d="M626.3,613.2c-2.1,8.4-3.7,17-3.8,24.8c-0.1,3.3,0.4,6.7,1,8.2c0.8,0,1.6-0.1,2.4-0.2
		c6.8-0.8,12-3.9,16-9.6c4.1-5.7,6.7-13.4,8.2-21.5c1.6-8.2,2.2-16.8,2.3-25.5c0.1-12.2-0.8-24.6-2.3-37
		c-6.1,11.6-11.5,23.6-16,35.8C631.1,596.4,628.4,604.8,626.3,613.2z"/>
	<linearGradient id="XMLID_274_" gradientUnits="userSpaceOnUse" x1="-362.4517" y1="717.7453" x2="985.291" y2="717.7453">
		<stop  offset="0" style="stop-color:#EF4123"/>
		<stop  offset="1" style="stop-color:#F086B6"/>
	</linearGradient>
	<path id="XMLID_109_" class="st5" d="M946.2,504.1l-0.2,0l-0.1,0l-36.9-3.7l-18.5,35.2c-1.1,2.1-3.8,3-5.9,1.8
		c-1.2-0.6-1.9-1.7-2.2-2.9l0-0.2l-10-43.2L861.5,508c-1.1,1.7-2.9,2.7-4.9,2.9l-0.3,0l-29.3,1.7l-3.6,0.1l-1.8,0.1l-0.4,0l-0.2,0
		l-0.1,0l-0.1,0l-0.6-0.1l-0.9-0.1l-7-0.6c-4.7-0.4-9.6-0.8-14.5-1.4c-9.8-1.1-19.7-2.8-29.5-5.7c-1.2-0.4-2.4-0.8-3.6-1.2
		c0,3.1-0.2,6.2-0.8,9.2c-0.4,2.1-0.9,4.1-1.6,6.1c-0.5,1.7-1.8,4.7-2.5,6c-1.9,3.7-4.5,7.4-8,10.7c-3.5,3.3-8.1,5.9-12.7,7.1
		c-4.6,1.3-9.1,1.5-13.2,1.3c-2-0.1-4.1-0.3-6.1-0.7l-2.5-0.4c-2.3-0.5-3.8-1.1-5.2-1.8c-5.3-2.9-8-6.3-10.7-9.6
		c-2.5-3.4-4.6-6.9-6.3-11c-0.4-1-0.8-2.1-1.1-3.3c-0.3-0.9-0.8-3.5-0.8-4.1l-0.1-0.6l0-0.3l0-1l0-1.5c0-1,0-2,0-3
		c0.2-4,0.7-8.1,1.8-12c0.1-0.2,0.2-0.5,0.2-0.7c-2.2,1.7-4.3,3.5-6.3,5.3c-8.5,7.9-16.1,17.2-22.9,27.1c0.4,2.3,0.8,4.6,1.2,6.9
		c3,18.4,5,37.1,4.8,56.2c-0.1,9.5-0.8,19.2-2.7,29c-1.9,9.7-5,19.8-11.5,29.1c-3.3,4.6-7.6,8.9-12.8,12c-5.2,3.1-11.1,5-16.8,5.6
		c-1.4,0.2-2.8,0.3-4.2,0.3l-1.1,0l-0.3,0l-0.1,0l-1,0l-0.4,0c-0.6-0.1-0.7,0-2.8-0.4c-6.3-1.5-9.7-5.7-11.6-9.3
		c-3.4-7.1-3.3-12.6-3.4-17.9c0.2-10.5,2.1-20,4.4-29.3c2.3-9.3,5.2-18.3,8.5-27.1c5.5-14.8,12.1-29.1,19.8-43
		c-1.3,1.3-2.7,2.6-4.3,3.7c-1.8,1.4-3.7,2.5-6.2,3.5l-2,0.8l-1.2,0.4l-0.3,0.1l-1,0.3l-1.7,0.3c-1.1,0.1-2.2,0.1-3.2,0
		c-4.1-0.5-6.7-2-8.9-3.4c-2.1-1.5-3.8-3-5.3-4.6c-3-3.2-5.2-6.5-7.1-10.1c-1.8-3.7-3.4-7.5-4-12.7c-0.3-3.7,0.1-5,0.4-7.3
		c0-0.2,0.1-0.4,0.2-0.6c-0.6,0.8-1.2,1.5-1.7,2.2c-1.4,1.9-2.1,3.2-3,4.9c-1.9,3.9-3.8,8.1-5.6,12.4c-3.6,8.6-7,17.3-10.2,26.2
		c-6.4,17.7-12.2,35.6-16.9,53.7c-2.3,9-4.6,18.1-6.2,27.2c-1,4.5-1.6,9.1-2.3,13.6c-0.8,4.5-1,9-1.5,13.6h0l0,0.1l0,0.3
		c-0.4,5.3-5,9.3-10.4,8.9c-5.3-0.4-9.3-5-8.9-10.4c0-0.1,0-0.3,0-0.4c0,0,0-0.1,0-0.1h0l3.4-45.3c0.7-7.6,0.8-15.1,1.2-22.6l1-22.6
		c0.2-5.5,0.2-11,0.2-16.5c-0.8,1.3-1.7,2.7-2.6,4c-1.2,1.7-2.5,3.4-4,5.2c-0.7,0.9-1.6,1.8-2.5,2.7c-1,0.9-1.8,1.8-3.9,3.1
		l-0.7,0.4l-0.3,0.2l-0.6,0.3l-0.2,0.1l-0.8,0.4l-0.1,0l-0.5,0.2l-1,0.4c-1.3,0.5-3,0.9-4.6,1.2c-3.3,0.4-7.4,0.1-10.7-1.5
		c-6.7-3.3-9.8-8.5-11.9-12.6c-4-8.6-5.4-16.5-6.5-24.3c-0.6-5.2-1-10.3-1.2-15.4c-0.8,0.9-1.6,1.8-2.4,2.6l-23,23.4
		c-1.8,1.9-3.6,3.8-5.1,5.6c-0.8,0.8-1.7,2-2.5,3l-0.6,0.7c-0.5,0.6-1.1,1.3-2,2.1c-1,0.8-2,1.6-4,2.3c-1.8,0.7-4.5,0.9-6.6,0.3
		c-4.4-1.3-5.8-3.5-6.9-4.8c-1-1.4-1.6-2.4-2.1-3.5c-0.7-1.6-1.2-3-1.6-4.3c-0.8,0.9-1.6,1.9-2.6,2.8c-2.8,2.6-5.7,5.1-10.6,7.1
		c-1.3,0.5-3,1-3.4,1.1l-1.1,0.2l-0.3,0.1l-1.1,0.2l-0.9,0.1c-2.5,0.2-5.1,0-7.5-0.7c-5-1.3-9-4.1-12-7.2c-3-3.1-5.1-6.6-6.7-10.1
		c-1.3-3.1-2.2-6.1-2.8-9.5c-3.6,2.2-7.9,4.3-13.5,5c-2.6,0.5-8.3-0.5-9.1-0.9l-1-0.3l-0.4-0.2l-0.8-0.3c-0.6-0.2-1-0.5-1.4-0.7
		c-0.9-0.5-1.6-1-2.3-1.6c-1.4-1.1-2.4-2.1-3.3-3.1c-3.6-4.1-5.6-7.9-7.5-11.7c-3.7-7.6-6.4-15-8.8-22.5c-1.2-3.8-2.3-7.5-3.4-11.3
		l-3.4,22.5l-6.4,40c-2.2,13.4-4.4,26.6-7.2,40.2l0,0.2c-1,5.2-6.1,8.6-11.3,7.5c-3.5-0.7-6.2-3.2-7.2-6.4l-8.7-26.1l-7.8-26.2
		l-5.6-18.8c-2.2,9.7-4.1,19.4-6.3,29.4c-1.1,5.3-2.3,10.7-3.6,16.1c-1.2,5.4-3,10.8-4.5,16.2c-1.8,5.3-3.7,10.6-5.6,15.8l-6.4,15.3
		c-2,4.9-7.7,7.2-12.6,5.2c-3.1-1.3-5.2-4.1-5.7-7.2l0-0.1l-4.9-28.8c-1.8-9.6-2.9-19.3-4.3-28.9c-1.5-9.6-2.5-19.3-3.6-29
		c-1.2-9.7-2.1-19.3-3.1-28.9l-3.1-28.7c-1-8.7-2.2-17.2-3.3-25.9c-4.2,17.1-9.3,33.7-16,50.3c-1,2.3-1.8,4.4-3.2,7.1
		c-0.7,1.4-1.3,2.4-1.8,3.3l-0.2,0.4l-0.4,0.6l-0.1,0.2l-0.5,0.7l-1,1.5c-2.8,3.8-6.2,8.7-12.2,12.1c-6,3.2-11.2,3.6-15.9,4.4
		l-13.9,1.6l-6.9,0.7c-3,0.3-5.7,0.2-8.1,0c-4.9-0.3-9.5-0.9-13.9-1.3c-2.5-0.2-3.6-0.4-6.2-0.3l-0.7,0c0,0,0,0,0,0
		c0-0.1-0.4,0.1-0.6,0.2c-0.6,0.3-1.3,0.6-2.1,1.2c-3.1,2-6.5,5.2-9.3,8.2l-0.2,0.3c-2,2.2-5.4,2.3-7.6,0.2
		c-0.7-0.6-1.2-1.4-1.4-2.3l-9.6-29.8L54,531l0,0.1c-0.5,1.7-2.2,2.7-3.9,2.2c-0.9-0.2-1.6-0.9-2-1.6c-2.2-4.3-4.4-8.6-6.8-12.9
		c-2.3-4.2-4.7-8.6-7.4-12.1c0,0,0-0.1-0.1-0.1c-1.2,0.7-2.4,1.2-3.5,1.6c-2.5,0.8-5,1.3-7.5,1.7c-4.9,0.8-9.9,1.2-14.8,1.4
		c-4.4,0.2-8.8,0.3-13.2,0.4C1.1,782.5,222.4,1000,494.6,1000c275.1,0,498.2-222.1,499.9-496.8L946.2,504.1z"/>
</g>
</svg>
